<svg aria-hidden="true" style="position: absolute; width: 0; height: 0; overflow: hidden;" version="1.1" xmlns="http://www.w3.org/2000/svg" xmlns:xlink="http://www.w3.org/1999/xlink">
<defs>
<symbol id="client-1" viewBox="0 0 61 32">
<path  d="m25.455 8.364 2.548 2.428-4.73-.003v11.779h12.364v-4.504l2.545 2.425V8.364H25.455zm10.07 9.415L28.3 10.895h7.225v6.884zm-2.244 3.066h-8.052v-7.922h.569v7.386h7.483v.536zm-6.446 3.905-.3-.617h-.248l.435.817v.476h.225v-.476l.435-.817h-.247l-.3.617zm1.106-.618h.053l.488 1.293h-.234l-.105-.303h-.5l-.104.303h-.233l.486-1.293h.149zm-.237.814h.378l-.189-.548-.189.548zm1.562-.214-.028-.036c-.033-.044-.059-.086-.077-.127s-.028-.084-.028-.128c0-.067.014-.125.042-.174s.067-.086.118-.112a.374.374 0 0 1 .178-.04c.066 0 .122.013.17.04s.085.061.11.104a.27.27 0 0 1 .039.142c0 .041-.007.078-.022.112s-.035.064-.061.092a.594.594 0 0 1-.091.079l-.09.065.256.302.023-.052a.52.52 0 0 0 .033-.189h.185a.784.784 0 0 1-.019.178.583.583 0 0 1-.095.213l.189.224h-.248l-.075-.088a.49.49 0 0 1-.133.072.606.606 0 0 1-.201.034c-.086 0-.16-.016-.223-.047s-.111-.075-.146-.13a.352.352 0 0 1-.018-.328.427.427 0 0 1 .09-.112c.035-.032.075-.063.12-.095zm.106.129-.027.019c-.031.025-.055.05-.07.074s-.025.044-.029.064a.22.22 0 0 0 .017.155.19.19 0 0 0 .072.074.234.234 0 0 0 .116.027.329.329 0 0 0 .209-.074l-.288-.338zm.051-.236.079-.053c.037-.025.064-.049.08-.073s.024-.054.024-.091a.129.129 0 0 0-.136-.124c-.03 0-.056.007-.076.021s-.036.032-.047.055a.183.183 0 0 0-.015.075c0 .027.007.054.02.083a.442.442 0 0 0 .071.107zm2.262.379h-.222c-.006.056-.02.104-.041.143s-.05.068-.09.088a.337.337 0 0 1-.154.03c-.052 0-.097-.01-.134-.031s-.068-.05-.092-.088c-.024-.038-.041-.083-.053-.136s-.017-.112-.017-.178v-.109c0-.069.006-.13.019-.183s.032-.099.058-.136c.025-.037.057-.064.095-.083s.082-.028.133-.028c.062 0 .112.011.151.032s.067.051.087.091c.02.04.033.087.039.143h.222c-.009-.086-.033-.163-.073-.23s-.094-.119-.165-.157a.547.547 0 0 0-.261-.057c-.081 0-.154.014-.219.043s-.12.07-.166.123c-.046.053-.082.117-.107.193s-.036.159-.036.252v.107c0 .093.012.177.036.252s.059.139.105.193c.046.053.1.093.164.122s.136.043.216.043c.104 0 .193-.019.265-.057s.129-.09.17-.155a.514.514 0 0 0 .071-.226zm1.233-.19v-.071c0-.098-.013-.185-.039-.262s-.062-.144-.109-.198a.456.456 0 0 0-.17-.125.555.555 0 0 0-.436 0 .475.475 0 0 0-.17.125c-.047.054-.084.12-.11.198s-.039.164-.039.262v.071c0 .098.013.185.039.263s.064.144.112.198a.488.488 0 0 0 .388.168.484.484 0 0 0 .387-.168c.047-.054.084-.12.109-.198s.038-.165.038-.263zm-.223-.073v.073c0 .072-.007.136-.021.192s-.034.103-.06.141a.26.26 0 0 1-.23.114c-.049 0-.093-.009-.131-.028s-.072-.048-.099-.086c-.027-.038-.048-.086-.062-.141s-.021-.12-.021-.192v-.073c0-.072.007-.136.021-.191s.035-.102.061-.139c.027-.038.06-.066.099-.085s.082-.029.131-.029.093.01.132.029c.039.019.072.047.099.085s.048.084.061.139a.78.78 0 0 1 .021.191z" />
</symbol>
<symbol id="client-2" viewBox="0 0 57 32">
<path d="M26.727 3.165h-.073a7.542 7.542 0 0 0-.336-.012h-.243c-.212 0-.428.005-.642.016a.4.4 0 0 0-.049 0c-1.944.11-3.848.596-5.609 1.431l-.231.111V16.52l.54-.183a20.64 20.64 0 0 1 1.5-.445 18.34 18.34 0 0 1 4.317-.574v1.551c-.193.001-.38.007-.568.016h-.045a17.207 17.207 0 0 0-3.322.51 16.858 16.858 0 0 0-3.957 1.542V3.792a15.847 15.847 0 0 1 4.151-1.688c1.278-.33 2.593-.5 3.913-.504h.228c.273.007.538.019.788.038.658.046 1.31.15 1.95.311v1.527a12.05 12.05 0 0 0-1.889-.285l-.039-.003c-.132-.011-.263-.022-.386-.022zm2.688 1.561c.339.026.689.038 1.044.038a16.75 16.75 0 0 0 4.114-.528 16.958 16.958 0 0 0 3.956-1.543v14.875a15.88 15.88 0 0 1-4.153 1.688 15.948 15.948 0 0 1-3.913.503c-1 .008-1.997-.11-2.968-.35V4.438c.229.053.465.102.706.142.394.066.81.115 1.214.145zm7.57.115-.54.182c-.497.167-.997.316-1.5.449a18.23 18.23 0 0 1-4.483.575c-.352 0-.676-.01-.989-.03l-.43-.028v12.148l.37.033c.343.03.696.045 1.052.045a14.364 14.364 0 0 0 3.531-.457c.95-.238 1.874-.57 2.759-.991l.231-.111V4.843zM19.06 24.113a.788.788 0 0 0-.6-.243.895.895 0 0 0-.347.065.778.778 0 0 0-.444.449.893.893 0 0 0-.062.335v2.023a.94.94 0 0 0 .08.415.718.718 0 0 0 .48.415c.098.028.2.042.302.042a.855.855 0 0 0 .838-.851v-.226h-.529v.18a.458.458 0 0 1-.031.18.315.315 0 0 1-.077.114.38.38 0 0 1-.222.077.266.266 0 0 1-.249-.109.479.479 0 0 1-.07-.271v-1.887a.643.643 0 0 1 .065-.302c.027-.043.066-.077.112-.098s.097-.03.147-.024a.28.28 0 0 1 .236.114c.059.078.09.173.088.271v.175h.524v-.206a.953.953 0 0 0-.242-.639zM22.202 24.09a.92.92 0 0 0-1.197 0 .82.82 0 0 0-.205.283.959.959 0 0 0-.077.392v1.941a.932.932 0 0 0 .077.397.791.791 0 0 0 .205.271.837.837 0 0 0 .279.171.897.897 0 0 0 .918-.171.849.849 0 0 0 .2-.271.934.934 0 0 0 .077-.397v-1.941a.943.943 0 0 0-.077-.392.867.867 0 0 0-.2-.283zm-.247 2.616a.355.355 0 0 1-.105.28.386.386 0 0 1-.498 0 .352.352 0 0 1-.105-.28v-1.941a.355.355 0 0 1 .105-.28.386.386 0 0 1 .498 0 .352.352 0 0 1 .105.28v1.941zM26.329 27.573v-3.674h-.509l-.668 1.945h-.009l-.673-1.945h-.503v3.674h.525v-2.235h.009l.514 1.58h.262l.518-1.58h.009v2.235h.525zM29.311 24.157a.727.727 0 0 0-.297-.201 1.168 1.168 0 0 0-.38-.057h-.78v3.674h.523v-1.435h.27a.964.964 0 0 0 .472-.1.759.759 0 0 0 .287-.281.875.875 0 0 0 .12-.32c.021-.138.03-.278.028-.418a2.107 2.107 0 0 0-.051-.525.785.785 0 0 0-.193-.338zm-.27 1.12a.45.45 0 0 1-.049.191.296.296 0 0 1-.135.129.538.538 0 0 1-.247.046h-.239v-1.249h.27a.506.506 0 0 1 .236.046.3.3 0 0 1 .123.136.537.537 0 0 1 .046.205v.244c0 .085.005.174 0 .252h-.005zM31.791 23.899h-.429l-.809 3.674h.523l.154-.789h.714l.154.789h.524l-.83-3.674zm-.483 2.384.258-1.332h.009l.256 1.332h-.524zM35.173 26.112h-.009l-.791-2.213h-.503v3.674h.523v-2.209h.011l.8 2.209h.492v-3.674h-.523v2.213zM38.372 23.899l-.421 1.461h-.011l-.421-1.461h-.554l.719 2.121v1.553h.524V26.02l.719-2.121h-.554zM17.6 28.61h.252v.708h.171v-.708h.251v-.145h-.675v.145zM19.721 28.465l-.331.853h.182l.07-.194h.34l.073.194h.186l-.339-.853h-.182zm-.027.516.116-.316.116.316h-.232zM21.818 29.004h.197v.11a.332.332 0 0 1-.202.072c-.034.002-.069-.004-.1-.019s-.059-.036-.081-.063a.352.352 0 0 1-.063-.222c0-.19.082-.285.246-.285.043-.004.086.007.121.032s.061.062.072.104l.169-.033c-.036-.167-.156-.251-.362-.251a.426.426 0 0 0-.298.11.413.413 0 0 0-.122.328.465.465 0 0 0 .109.32.408.408 0 0 0 .324.125.511.511 0 0 0 .362-.136v-.336h-.37v.144zM23.959 28.465h-.173v.853h.598v-.145h-.425v-.708zM25.769 28.465h-.173v.853h.173v-.853zM27.539 29.035l-.349-.57h-.167v.853h.161v-.557l.343.557h.171v-.853h-.158v.57zM29.14 28.943h.425v-.145h-.425v-.187h.457v-.145h-.63v.853h.648v-.145h-.475v-.231zM33.02 28.802h-.336v-.336h-.171v.853h.171v-.373h.336v.373h.171v-.853h-.171v.336zM34.629 28.943h.426v-.145h-.426v-.187h.459v-.145h-.63v.853h.646v-.145h-.475v-.231zM36.812 28.943c.148-.023.224-.102.224-.237a.203.203 0 0 0-.084-.189.479.479 0 0 0-.25-.05h-.362v.853h.171v-.357h.034a.231.231 0 0 1 .107.019.181.181 0 0 1 .061.062l.186.271h.205L37 29.148a.6.6 0 0 0-.189-.205zm-.172-.118h-.127v-.214h.135a.445.445 0 0 1 .174.02c.012.011.022.025.029.04a.116.116 0 0 1-.004.097.114.114 0 0 1-.032.037.486.486 0 0 1-.174.02zM38.458 28.943h.425v-.145h-.425v-.187h.459v-.145h-.631v.853h.648v-.145h-.475v-.231z"/>
</symbol>
<symbol id="client-3" viewBox="0 0 57 32">
<path d="M19.417 26.187c.008 0 .017.002.025.005s.015.007.02.013l.116.111a.955.955 0 0 1-.327.211 1.299 1.299 0 0 1-.464.076 1.213 1.213 0 0 1-.436-.071.942.942 0 0 1-.329-.2.878.878 0 0 1-.212-.308 1.02 1.02 0 0 1-.074-.396.91.91 0 0 1 .305-.705 1.06 1.06 0 0 1 .349-.201c.143-.048.296-.072.449-.071.143-.003.285.019.417.064.115.043.221.104.313.178l-.097.119a.085.085 0 0 1-.025.021.066.066 0 0 1-.039.009.086.086 0 0 1-.042-.013l-.052-.032-.073-.04a.818.818 0 0 0-.229-.071 1.11 1.11 0 0 0-.173-.013.952.952 0 0 0-.323.053.683.683 0 0 0-.417.387.81.81 0 0 0-.06.313.795.795 0 0 0 .06.318.68.68 0 0 0 .402.383.867.867 0 0 0 .3.05c.059.001.119-.003.177-.01a.69.69 0 0 0 .384-.163.09.09 0 0 1 .055-.02zM22.776 25.629a.974.974 0 0 1-.078.393c-.047.114-.122.218-.219.305s-.214.155-.344.2a1.42 1.42 0 0 1-.884 0 1.027 1.027 0 0 1-.342-.201.904.904 0 0 1-.221-.308 1.022 1.022 0 0 1 0-.787.94.94 0 0 1 .221-.31c.097-.084.214-.15.342-.193.284-.096.6-.096.884 0 .129.046.246.114.343.201a.914.914 0 0 1 .298.699zm-.306 0a.84.84 0 0 0-.055-.316.653.653 0 0 0-.402-.385 1.025 1.025 0 0 0-.643 0 .683.683 0 0 0-.246.149.63.63 0 0 0-.157.236.927.927 0 0 0 0 .632.643.643 0 0 0 .403.384c.207.067.435.067.643 0a.698.698 0 0 0 .246-.148.662.662 0 0 0 .156-.236.82.82 0 0 0 .055-.316zM25.067 25.96l.03.071.033-.071a.68.68 0 0 1 .038-.07l.743-1.174c.015-.02.028-.033.042-.037a.207.207 0 0 1 .061-.006h.22v1.909h-.26V25.119a.726.726 0 0 1 0-.066l-.747 1.19c-.009.018-.025.033-.044.043s-.041.016-.064.016h-.042c-.023 0-.045-.005-.064-.016s-.034-.026-.044-.044l-.769-1.198v1.533h-.252v-1.905h.22a.207.207 0 0 1 .061.006.087.087 0 0 1 .041.037l.759 1.175a.418.418 0 0 1 .038.068zM27.864 25.865v.715h-.291v-1.906h.649c.122-.002.244.012.362.042a.724.724 0 0 1 .256.119.492.492 0 0 1 .145.187.576.576 0 0 1 .049.244.54.54 0 0 1-.211.435.752.752 0 0 1-.257.126 1.25 1.25 0 0 1-.35.044l-.352-.005zm0-.205h.352a.808.808 0 0 0 .225-.029.52.52 0 0 0 .163-.082.358.358 0 0 0 .134-.286c.003-.053-.007-.106-.029-.155s-.057-.094-.102-.13a.624.624 0 0 0-.391-.102h-.352v.786zM31.772 26.583h-.23a.109.109 0 0 1-.064-.018.123.123 0 0 1-.038-.044l-.198-.461h-.993l-.205.461a.107.107 0 0 1-.101.062h-.23l.872-1.909h.302l.884 1.909zm-1.439-.709h.82l-.346-.777a1.276 1.276 0 0 1-.065-.179l-.034.1a.98.98 0 0 1-.032.081l-.343.776zM33.029 24.682c.017.008.032.02.044.034l1.272 1.439V24.673h.26v1.909h-.145a.136.136 0 0 1-.06-.011.165.165 0 0 1-.047-.035l-1.271-1.438a.726.726 0 0 1 0 .066v1.419h-.26v-1.909h.154a.15.15 0 0 1 .052.009zM36.748 25.823v.758h-.291v-.758l-.804-1.15h.26a.114.114 0 0 1 .063.016.159.159 0 0 1 .039.043l.503.742a.717.717 0 0 1 .088.169l.038-.082a.745.745 0 0 1 .049-.087l.496-.747a.18.18 0 0 1 .038-.04.098.098 0 0 1 .063-.019h.263l-.806 1.155zM24.923 21.47c.127.014.255.025.384.035 1.962-.763 3.622-2.011 4.772-3.588s1.74-3.415 1.695-5.282l-2.162-1.879c.44 1.988.234 4.043-.594 5.935s-2.245 3.547-4.094 4.779z"/><path d="m24.151 21.383.058.01c1.975-1.228 3.482-2.942 4.323-4.921s.981-4.133.4-6.181l-3.08-2.676c1.246 2.2 1.747 4.661 1.446 7.098s-1.393 4.75-3.147 6.67zM34.596 14.841c-.523 2.052-1.794 3.902-3.624 5.276-.534.404-1.111.763-1.722 1.074 1.49-.38 2.859-1.053 4.003-1.966s2.03-2.042 2.592-3.3l-1.249-1.084z"/><path d="m34.106 14.539-1.778-1.545c-.034 1.762-.61 3.483-1.669 4.986s-2.562 2.731-4.352 3.559h.009c.399 0 .798-.021 1.194-.062 1.673-.593 3.151-1.537 4.303-2.748s1.94-2.65 2.295-4.189zM24.409 6.486 22.287 4.64c-1.897.637-3.528 1.756-4.68 3.212s-1.772 3.179-1.778 4.946c.007 1.952.763 3.846 2.149 5.383s3.322 2.628 5.501 3.101c1.946-2.06 3.085-4.605 3.252-7.266s-.647-5.299-2.323-7.53zM39.008 14.255c-.008-2.316-1.07-4.535-2.955-6.173s-4.439-2.561-7.105-2.567a11.3 11.3 0 0 0-3.602.582l12.99 11.286a7.647 7.647 0 0 0 .672-3.128z"/>
</symbol>
<symbol id="client-4" viewBox="0 0 32 32">
<path  d="M4.961 12.532h-0.001c-0.905 0-1.638 0.715-1.638 1.597v0.001c0 0.882 0.734 1.597 1.638 1.597h0.001c0.905 0 1.638-0.715 1.638-1.597v-0.001c0-0.882-0.734-1.596-1.638-1.596zM17.055 12.022c-0.003-1.225-0.503-2.399-1.392-3.265-0.888-0.866-2.092-1.354-3.349-1.357-1.257 0.002-2.462 0.49-3.352 1.356s-1.39 2.041-1.392 3.266v6.754s9.484-1.029 9.485-6.753v-0.001zM0 20.993c0.004 0.892 0.375 1.696 0.968 2.271l0.001 0.001c0.602 0.584 1.424 0.944 2.331 0.945h0c0.906-0.001 1.728-0.361 2.331-0.945l-0.001 0.001c0.594-0.576 0.965-1.38 0.97-2.27v-4.701s-6.6 0.718-6.6 4.699zM3.3 21.835c-0 0-0.001 0-0.001 0-0.178 0-0.344-0.053-0.482-0.144l0.003 0.002c-0.141-0.092-0.25-0.221-0.317-0.373l-0.002-0.005c-0.041-0.095-0.066-0.205-0.066-0.322 0-0.058 0.006-0.115 0.018-0.17l-0.001 0.005c0.033-0.164 0.116-0.314 0.236-0.431 0.118-0.115 0.269-0.196 0.437-0.23l0.006-0.001c0.051-0.010 0.109-0.016 0.169-0.016 0.119 0 0.233 0.024 0.336 0.067l-0.006-0.002c0.158 0.064 0.293 0.172 0.388 0.31 0.091 0.131 0.146 0.294 0.146 0.469 0 0.116-0.024 0.227-0.067 0.327l0.002-0.005c-0.046 0.107-0.109 0.198-0.187 0.274l-0 0c-0.080 0.078-0.176 0.141-0.281 0.183-0.098 0.041-0.212 0.064-0.331 0.064-0 0-0 0-0 0h0v-0.003zM10.036 21.312h-0.675v0.697h-0.352v-1.706h1.111v0.285h-0.759v0.44h0.675v0.284zM11.726 21.195c0 0.168-0.030 0.315-0.089 0.442-0.056 0.122-0.144 0.222-0.253 0.291l-0.003 0.002c-0.104 0.065-0.231 0.103-0.367 0.103-0.005 0-0.009-0-0.014-0h0.001c-0.006 0-0.014 0-0.021 0-0.271 0-0.505-0.159-0.613-0.389l-0.002-0.004c-0.059-0.124-0.093-0.269-0.093-0.422 0-0.005 0-0.010 0-0.015v0.001-0.085c0-0.168 0.030-0.316 0.090-0.443s0.146-0.226 0.256-0.294c0.111-0.069 0.238-0.103 0.38-0.103s0.268 0.034 0.378 0.103c0.111 0.068 0.196 0.166 0.256 0.294s0.092 0.275 0.092 0.442v0.076zM11.37 21.118c0-0.179-0.032-0.315-0.096-0.408-0.057-0.085-0.152-0.14-0.261-0.14-0.005 0-0.010 0-0.014 0l0.001-0c-0.004-0-0.008-0-0.013-0-0.108 0-0.203 0.055-0.259 0.138l-0.001 0.001c-0.064 0.091-0.097 0.226-0.098 0.403v0.083c0 0.174 0.032 0.31 0.096 0.406s0.156 0.144 0.277 0.144c0.004 0 0.009 0 0.014 0 0.107 0 0.202-0.054 0.257-0.137l0.001-0.001c0.063-0.093 0.095-0.228 0.096-0.406v-0.083zM12.866 21.562c0-0.003 0-0.006 0-0.010 0-0.058-0.028-0.109-0.070-0.142l-0-0c-0.047-0.036-0.131-0.074-0.253-0.113-0.113-0.035-0.208-0.075-0.3-0.122l0.010 0.005c-0.194-0.105-0.291-0.246-0.291-0.423 0-0.092 0.026-0.174 0.078-0.246s0.127-0.129 0.224-0.17c0.098-0.040 0.207-0.061 0.328-0.061s0.23 0.022 0.326 0.067c0.096 0.044 0.169 0.106 0.222 0.186s0.080 0.172 0.080 0.274h-0.352c0-0.078-0.024-0.139-0.074-0.182-0.049-0.044-0.118-0.066-0.208-0.066-0.086 0-0.153 0.018-0.2 0.055-0.044 0.031-0.072 0.082-0.072 0.139 0 0.001 0 0.003 0 0.004v-0c0 0.055 0.028 0.102 0.083 0.139 0.056 0.038 0.139 0.073 0.248 0.106 0.2 0.060 0.346 0.135 0.437 0.224s0.137 0.2 0.137 0.332c0 0.148-0.056 0.264-0.168 0.348s-0.262 0.126-0.451 0.126c-0.131 0-0.251-0.024-0.358-0.072-0.101-0.043-0.185-0.111-0.246-0.196l-0.001-0.002c-0.053-0.079-0.085-0.176-0.085-0.281 0-0.003 0-0.007 0-0.010v0.001h0.352c0 0.188 0.113 0.282 0.338 0.282 0.084 0 0.149-0.017 0.196-0.050 0.043-0.031 0.070-0.080 0.070-0.136 0-0.002-0-0.005-0-0.007v0zM14.742 20.588h-0.522v1.421h-0.352v-1.421h-0.516v-0.285h1.39v0.285zM15.97 21.27h-0.675v0.457h0.792v0.282h-1.144v-1.706h1.142v0.285h-0.79v0.406h0.675v0.276zM16.925 21.385h-0.28v0.624h-0.352v-1.706h0.634c0.201 0 0.357 0.045 0.466 0.135s0.164 0.217 0.164 0.381c0 0.116-0.026 0.214-0.076 0.292-0.057 0.082-0.134 0.145-0.225 0.184l-0.003 0.001 0.369 0.697v0.016h-0.378l-0.32-0.624zM16.645 21.1h0.284c0.088 0 0.156-0.022 0.205-0.067 0.045-0.044 0.073-0.106 0.073-0.174 0-0.004-0-0.009-0-0.013l0 0.001c0-0.080-0.023-0.144-0.069-0.19s-0.115-0.069-0.21-0.069h-0.283v0.512zM18.776 21.408v0.601h-0.352v-1.706h0.666c0.128 0 0.24 0.023 0.338 0.070s0.172 0.114 0.225 0.2c0.052 0.086 0.078 0.184 0.078 0.294 0 0.167-0.057 0.299-0.172 0.396s-0.272 0.144-0.475 0.144h-0.308zM18.776 21.124h0.314c0.093 0 0.164-0.022 0.212-0.066 0.049-0.044 0.074-0.106 0.074-0.187 0-0.004 0-0.008 0-0.012 0-0.074-0.028-0.141-0.074-0.191l0 0c-0.049-0.052-0.117-0.078-0.204-0.080h-0.322v0.536zM21 21.27h-0.675v0.457h0.792v0.282h-1.144v-1.706h1.142v0.285h-0.79v0.406h0.675v0.276zM22.631 20.588h-0.522v1.421h-0.352v-1.421h-0.515v-0.285h1.39v0.285zM23.859 21.27h-0.675v0.457h0.792v0.282h-1.144v-1.706h1.142v0.285h-0.79v0.406h0.675v0.276zM24.814 21.385h-0.28v0.624h-0.352v-1.706h0.634c0.202 0 0.357 0.045 0.466 0.135s0.164 0.217 0.164 0.381c0 0.116-0.025 0.214-0.076 0.292-0.056 0.082-0.134 0.145-0.225 0.184l-0.003 0.001 0.369 0.697v0.016h-0.378l-0.32-0.624zM24.534 21.1h0.284c0.088 0 0.156-0.022 0.205-0.067 0.045-0.044 0.073-0.105 0.073-0.173 0-0.005-0-0.009-0-0.014l0 0.001c0-0.080-0.023-0.144-0.069-0.19s-0.115-0.069-0.21-0.069h-0.282v0.512zM26.6 21.562c0-0.003 0-0.006 0-0.010 0-0.058-0.027-0.109-0.070-0.142l-0-0c-0.047-0.036-0.132-0.074-0.253-0.113-0.113-0.035-0.208-0.075-0.3-0.122l0.010 0.005c-0.194-0.105-0.291-0.246-0.291-0.423 0-0.092 0.026-0.174 0.078-0.246s0.127-0.129 0.224-0.17c0.093-0.039 0.202-0.061 0.316-0.061 0.004 0 0.009 0 0.013 0h-0.001c0.122 0 0.23 0.022 0.326 0.067s0.169 0.106 0.222 0.186c0.053 0.080 0.080 0.172 0.080 0.274h-0.352c0-0.078-0.024-0.139-0.074-0.182-0.049-0.044-0.118-0.066-0.208-0.066-0.086 0-0.153 0.018-0.2 0.055-0.044 0.031-0.072 0.082-0.072 0.139 0 0.001 0 0.003 0 0.004v-0c0 0.055 0.028 0.102 0.083 0.139 0.056 0.038 0.139 0.073 0.247 0.106 0.2 0.060 0.346 0.135 0.437 0.224s0.137 0.2 0.137 0.332c0 0.148-0.056 0.264-0.168 0.348s-0.262 0.126-0.451 0.126c-0.131 0-0.251-0.024-0.358-0.072-0.101-0.043-0.185-0.111-0.246-0.196l-0.001-0.002c-0.053-0.079-0.084-0.176-0.084-0.281 0-0.003 0-0.007 0-0.010v0.001h0.353c0 0.188 0.112 0.282 0.337 0.282 0.084 0 0.149-0.017 0.196-0.050 0.043-0.031 0.070-0.080 0.070-0.136 0-0.002-0-0.005-0-0.007v0z"></path>
</symbol>
<symbol id="client-5" viewBox="0 0 32 32">
<path  d="M2.434 24.558c0.125 0.155 0.191 0.349 0.188 0.548 0.001 0.013 0.001 0.027 0.001 0.042 0 0.258-0.112 0.49-0.291 0.649l-0.001 0.001c-0.242 0.184-0.542 0.273-0.846 0.253h-1.486v-3.474h1.455c0.025-0.002 0.053-0.003 0.082-0.003 0.272 0 0.523 0.088 0.728 0.236l-0.004-0.002c0.174 0.147 0.283 0.364 0.283 0.608 0 0.015-0 0.029-0.001 0.044l0-0.002c0.009 0.191-0.052 0.38-0.169 0.532-0.111 0.134-0.264 0.231-0.438 0.27l-0.005 0.001c0.197 0.036 0.375 0.141 0.502 0.297zM0.692 24.033h0.621c0.142 0.011 0.282-0.030 0.396-0.116 0.083-0.076 0.135-0.184 0.135-0.305 0-0.012-0.001-0.024-0.002-0.036l0 0.002c0.001-0.009 0.001-0.019 0.001-0.030 0-0.122-0.051-0.232-0.133-0.31l-0-0c-0.099-0.074-0.223-0.119-0.358-0.119-0.017 0-0.035 0.001-0.052 0.002l0.002-0h-0.611v0.911zM1.77 25.365c0.091-0.079 0.148-0.195 0.148-0.325 0-0.010-0-0.019-0.001-0.029l0 0.001c0-0.008 0.001-0.017 0.001-0.025 0-0.132-0.058-0.25-0.15-0.331l-0.001-0c-0.105-0.079-0.238-0.127-0.382-0.127-0.014 0-0.029 0-0.043 0.001l0.002-0h-0.651v0.955h0.661c0.149 0.009 0.296-0.034 0.418-0.12zM5.409 26.051l-0.809-1.358h-0.304v1.358h-0.696v-3.474h1.318c0.027-0.002 0.059-0.003 0.090-0.003 0.316 0 0.605 0.113 0.83 0.3l-0.002-0.002c0.195 0.2 0.316 0.474 0.316 0.776 0 0.249-0.082 0.479-0.22 0.664l0.002-0.003c-0.163 0.187-0.385 0.312-0.629 0.353l0.862 1.388h-0.758zM4.296 24.22h0.569c0.396 0 0.593-0.175 0.593-0.526 0.001-0.009 0.001-0.019 0.001-0.030 0-0.14-0.056-0.268-0.146-0.361l0 0c-0.106-0.089-0.244-0.143-0.395-0.143-0.019 0-0.037 0.001-0.056 0.003l0.002-0h-0.577l0.007 1.058zM9.215 25.352h-1.387l-0.245 0.7h-0.73l1.275-3.435h0.789l1.269 3.435h-0.73l-0.24-0.699zM9.029 24.826l-0.507-1.466-0.507 1.466h1.014zM13.98 26.051h-0.692l-1.55-2.362v2.362h-0.69v-3.474h0.69l1.55 2.376v-2.376h0.692v3.474zM17.925 25.219c-0.145 0.263-0.359 0.473-0.617 0.609l-0.008 0.004c-0.301 0.152-0.635 0.228-0.972 0.219h-1.231v-3.474h1.231c0.016-0 0.035-0.001 0.054-0.001 0.335 0 0.651 0.079 0.93 0.22l-0.012-0.005c0.265 0.133 0.483 0.345 0.625 0.606 0.137 0.265 0.216 0.579 0.216 0.911s-0.080 0.646-0.222 0.923l0.005-0.011zM17.134 25.136c0.19-0.221 0.306-0.512 0.306-0.829s-0.116-0.608-0.308-0.831l0.001 0.002c-0.21-0.185-0.487-0.298-0.791-0.298-0.026 0-0.052 0.001-0.078 0.002l0.003-0h-0.48v2.249h0.48c0.022 0.002 0.049 0.002 0.075 0.002 0.303 0 0.58-0.113 0.792-0.299l-0.001 0.001zM9.648 3.254s8.923 3.382 8.733 8.277v8.278s-8.916-3.384-8.73-8.278l-0.003-8.277zM26.331 17.871c1.597-1.117 3.527-1.869 5.615-2.093l0.054-0.005v-2.591c-2.386 0.941-4.331 2.57-5.641 4.642l-0.028 0.048z"></path>
<path  d="M25.318 18.652c1.393-2.778 3.739-4.906 6.598-5.985l0.084-0.028v-7.467s-12.708 4.818-12.439 11.787v11.786s0.566-0.215 1.457-0.619c0-0.377 0-0.757 0.041-1.139 0.279-3.35 1.866-6.284 4.243-8.322l0.016-0.014z"></path>
<path  d="M24.11 23.030c0.074-0.89 0.232-1.712 0.467-2.5l-0.022 0.086c-1.624 1.912-2.631 4.393-2.691 7.106l-0 0.013c1.035-0.498 1.835-0.928 2.618-1.387l-0.174 0.094c-0.152-0.724-0.239-1.555-0.239-2.407 0-0.354 0.015-0.705 0.044-1.051l-0.003 0.045zM24.615 23.073c-0.025 0.286-0.039 0.619-0.039 0.955 0 0.755 0.071 1.493 0.208 2.208l-0.012-0.073c3.472-2.086 7.373-5.309 7.223-9.204v-0.339c-2.586 0.299-4.865 1.425-6.61 3.102l0.004-0.004c-0.399 0.983-0.674 2.122-0.771 3.312l-0.003 0.042z"></path>
</symbol>
<symbol id="client-6" viewBox="0 0 32 32">
<path  d="M16.086 15.408c-0.13-0.186-0.207-0.417-0.207-0.665 0-0.026 0.001-0.052 0.003-0.078l-0 0.004v-1.072c0-0.329 0.068-0.579 0.204-0.75s0.37-0.256 0.701-0.255c0.311 0 0.532 0.073 0.663 0.218 0.142 0.186 0.212 0.412 0.196 0.641v0.252h-0.556v-0.255c0-0.010 0-0.021 0-0.033 0-0.076-0.006-0.151-0.018-0.225l0.001 0.008c-0.009-0.059-0.038-0.111-0.079-0.148l-0-0c-0.049-0.037-0.111-0.058-0.178-0.058-0.008 0-0.017 0-0.025 0.001l0.001-0c-0.007-0.001-0.015-0.001-0.023-0.001-0.071 0-0.137 0.023-0.19 0.063l0.001-0.001c-0.047 0.042-0.080 0.098-0.092 0.162l-0 0.002c-0.016 0.087-0.023 0.176-0.022 0.265v1.302c-0.001 0.015-0.002 0.032-0.002 0.050 0 0.115 0.027 0.223 0.075 0.32l-0.002-0.004c0.028 0.039 0.066 0.069 0.11 0.088l0.002 0.001c0.032 0.014 0.070 0.023 0.11 0.023 0.012 0 0.023-0.001 0.035-0.002l-0.001 0c0.007 0.001 0.015 0.001 0.023 0.001 0.066 0 0.127-0.023 0.175-0.060l-0.001 0c0.043-0.041 0.073-0.095 0.083-0.157l0-0.001c0.013-0.086 0.019-0.174 0.018-0.261v-0.264h0.556v0.241c0.001 0.020 0.002 0.043 0.002 0.066 0 0.228-0.073 0.439-0.197 0.611l0.002-0.003c-0.128 0.159-0.346 0.239-0.666 0.239s-0.562-0.085-0.7-0.262zM18.404 15.419c-0.141-0.167-0.211-0.41-0.211-0.732v-1.128c0-0.319 0.070-0.559 0.211-0.723s0.375-0.245 0.705-0.245c0.327 0 0.561 0.082 0.702 0.245s0.212 0.405 0.212 0.723v1.128c0 0.319-0.072 0.563-0.215 0.731s-0.375 0.252-0.699 0.252c-0.324 0-0.563-0.085-0.705-0.251zM19.368 15.148c0.050-0.104 0.073-0.219 0.067-0.334v-1.381c0.001-0.011 0.001-0.024 0.001-0.037 0-0.106-0.025-0.205-0.069-0.294l0.002 0.004c-0.029-0.040-0.067-0.070-0.112-0.089l-0.002-0.001c-0.032-0.014-0.070-0.022-0.109-0.022-0.013 0-0.026 0.001-0.039 0.003l0.001-0c-0.011-0.002-0.024-0.002-0.038-0.002-0.040 0-0.077 0.008-0.112 0.023l0.002-0.001c-0.047 0.020-0.085 0.050-0.114 0.089l-0.001 0.001c-0.050 0.102-0.073 0.214-0.067 0.327v1.387c-0.007 0.115 0.016 0.229 0.067 0.334 0.032 0.035 0.071 0.063 0.115 0.082l0.002 0.001c0.042 0.019 0.091 0.029 0.143 0.029s0.101-0.011 0.145-0.030l-0.002 0.001c0.046-0.020 0.085-0.048 0.117-0.082l0-0v-0.006zM20.692 12.624h0.599l0.451 2.082 0.461-2.082h0.583l0.059 3.004h-0.43l-0.046-2.088-0.445 2.088h-0.346l-0.461-2.095-0.043 2.095h-0.436l0.054-3.004zM23.517 12.624h0.933c0.538 0 0.807 0.284 0.807 0.853 0 0.545-0.283 0.817-0.849 0.816h-0.318v1.335h-0.576l0.004-3.004zM24.314 13.908c0.015 0.002 0.033 0.003 0.052 0.003 0.102 0 0.194-0.037 0.266-0.098l-0.001 0c0.066-0.102 0.095-0.221 0.083-0.339 0-0.010 0.001-0.022 0.001-0.033 0-0.085-0.010-0.167-0.030-0.246l0.001 0.007c-0.009-0.032-0.023-0.059-0.043-0.083l0 0c-0.020-0.024-0.044-0.045-0.071-0.060l-0.001-0.001c-0.066-0.031-0.144-0.049-0.226-0.049-0.011 0-0.022 0-0.032 0.001l0.001-0h-0.224v0.897h0.224zM26.088 12.624h0.619l0.635 3.004h-0.537l-0.125-0.693h-0.552l-0.129 0.693h-0.545l0.635-3.004zM26.616 14.588l-0.216-1.261-0.215 1.261h0.431zM27.854 12.624h0.403l0.772 1.714v-1.714h0.478v3.004h-0.384l-0.777-1.789v1.789h-0.494l0.001-3.004zM30.628 14.483l-0.642-1.855h0.541l0.392 1.191 0.367-1.191h0.529l-0.634 1.855v1.146h-0.553v-1.146zM16.976 16.942v0.157h-0.47v1.221h-0.197v-1.221h-0.472v-0.157h1.14zM18.45 18.319h-0.152c-0.001 0-0.003 0-0.004 0-0.015 0-0.028-0.005-0.039-0.013l0 0c-0.011-0.008-0.020-0.019-0.025-0.031l-0-0-0.136-0.327h-0.652l-0.136 0.327c-0.004 0.014-0.011 0.027-0.021 0.037l0-0c-0.011 0.008-0.024 0.013-0.039 0.013-0.001 0-0.002-0-0.004-0h-0.152l0.576-1.378h0.2l0.583 1.372zM17.496 17.808h0.544l-0.23-0.561c-0.015-0.035-0.029-0.078-0.041-0.122l-0.002-0.007-0.022 0.073-0.021 0.058-0.228 0.56zM19.443 18.184c0.036 0.002 0.072 0.002 0.108 0 0.031-0.003 0.062-0.009 0.092-0.017 0.033-0.008 0.061-0.016 0.088-0.027l-0.004 0.002c0.025-0.010 0.051-0.022 0.077-0.033v-0.31h-0.23c-0.001 0-0.002 0-0.003 0-0.011 0-0.021-0.004-0.029-0.011l0 0c-0.007-0.006-0.012-0.015-0.012-0.024 0-0 0-0.001 0-0.001v0-0.106h0.447v0.528c-0.070 0.047-0.151 0.086-0.237 0.111l-0.006 0.001c-0.041 0.012-0.089 0.022-0.14 0.028l-0.005 0c-0.050 0.006-0.108 0.009-0.166 0.009-0.001 0-0.002 0-0.002 0h0c-0.002 0-0.004 0-0.006 0-0.102 0-0.2-0.019-0.29-0.053l0.006 0.002c-0.089-0.034-0.166-0.083-0.23-0.144l0 0c-0.062-0.061-0.112-0.133-0.147-0.214l-0.002-0.004c-0.033-0.082-0.053-0.177-0.053-0.276 0-0.003 0-0.007 0-0.010v0.001c-0-0.003-0-0.006-0-0.010 0-0.1 0.019-0.196 0.054-0.284l-0.002 0.005c0.033-0.082 0.084-0.156 0.148-0.218 0.066-0.062 0.144-0.111 0.23-0.143 0.088-0.032 0.19-0.051 0.296-0.051 0.004 0 0.009 0 0.013 0h-0.001c0.054 0 0.107 0.004 0.16 0.012 0.136 0.021 0.256 0.079 0.354 0.162l-0.001-0.001-0.056 0.085c-0.005 0.008-0.011 0.014-0.018 0.019l-0 0c-0.008 0.004-0.017 0.007-0.026 0.007h-0c-0.013-0-0.026-0.004-0.036-0.011l0 0c-0.023-0.012-0.041-0.022-0.059-0.034l0.003 0.002c-0.022-0.013-0.047-0.026-0.074-0.036l-0.003-0.001c-0.030-0.012-0.065-0.022-0.102-0.030l-0.004-0.001c-0.042-0.008-0.090-0.012-0.138-0.012-0.003 0-0.006 0-0.008 0h0c-0.002-0-0.004-0-0.007-0-0.077 0-0.151 0.014-0.22 0.040l0.004-0.001c-0.066 0.025-0.122 0.062-0.169 0.109l0-0c-0.048 0.050-0.084 0.108-0.107 0.172-0.024 0.068-0.039 0.147-0.039 0.23s0.014 0.161 0.040 0.235l-0.002-0.005c0.025 0.065 0.064 0.124 0.115 0.173 0.047 0.047 0.105 0.084 0.168 0.109 0.073 0.024 0.151 0.033 0.228 0.027zM21.28 18.162h0.629v0.157h-0.822v-1.378h0.197l-0.005 1.221zM22.564 18.319h-0.197v-1.377h0.197v1.378zM23.297 16.948c0.012 0.007 0.022 0.015 0.030 0.025l0 0 0.842 1.039c-0.001-0.007-0.001-0.016-0.001-0.025s0-0.017 0.001-0.026l-0 0.001v-1.027h0.172v1.383h-0.099c-0.002 0-0.004 0-0.007 0-0.013 0-0.025-0.003-0.036-0.008l0.001 0c-0.012-0.007-0.022-0.016-0.031-0.026l-0-0-0.841-1.037v1.071h-0.165v-1.377h0.102c0 0 0 0 0 0 0.012 0 0.023 0.002 0.033 0.007l-0.001-0zM25.791 16.942v0.152h-0.698v0.455h0.566v0.146h-0.566v0.47h0.698v0.152h-0.901v-1.375h0.901zM5.143 8.433l8.75 2.352v8.242l-8.749-2.35v-8.243zM4.582 7.73v9.345l9.871 2.654v-9.345l-9.871-2.655z"></path>
<path  d="M9.872 24.068l-9.872-2.656v-9.345l9.872 2.655v9.346z"></path>
<path  d="M4.745 8.327l8.635 2.322-3.672 3.478-8.636-2.323 3.674-3.477zM4.582 7.73l-4.582 4.337 9.872 2.655 4.581-4.337-9.871-2.655zM10.428 23.543l4.025-3.811-4.025-1.083v4.895z"></path>
</symbol>
</defs>
</svg>